<?xml version="1.0" encoding="UTF-8" standalone="no"?>
<svg
   xmlns:dc="http://purl.org/dc/elements/1.1/"
   xmlns:cc="http://creativecommons.org/ns#"
   xmlns:rdf="http://www.w3.org/1999/02/22-rdf-syntax-ns#"
   xmlns:svg="http://www.w3.org/2000/svg"
   xmlns="http://www.w3.org/2000/svg"
   id="svg8"
   version="1.1"
   viewBox="0 0 640 79.000006"
   height="79"
   width="640">
  <defs
     id="defs2" />
  <metadata
     id="metadata5">
    <rdf:RDF>
      <cc:Work
         rdf:about="">
        <dc:format>image/svg+xml</dc:format>
        <dc:type
           rdf:resource="http://purl.org/dc/dcmitype/StillImage" />
        <dc:title></dc:title>
      </cc:Work>
    </rdf:RDF>
  </metadata>
  <g
     transform="translate(0,157.48036)"
     id="layer1">
    <g
       style="font-weight:bold;font-size:144.922px;line-height:125%;font-family:Cinzel;-inkscape-font-specification:'Cinzel Bold';font-variant-numeric:ordinal;letter-spacing:0px;word-spacing:0px;writing-mode:lr-tb;fill:#1c1f86;fill-opacity:1;stroke:none;stroke-width:1.4616px;stroke-linecap:butt;stroke-linejoin:miter;stroke-opacity:1"
       id="text832"
       transform="matrix(0.64108971,0,0,0.73016323,-307.83108,-279.67653)"
       aria-label="Pocket Camera">
      <path
         id="path834"
         style="font-style:oblique;font-variant:normal;font-weight:bold;font-stretch:normal;font-family:'Futura PT';-inkscape-font-specification:'Futura PT Bold Oblique';fill:#1c1f86;fill-opacity:1;stroke:none;stroke-width:1.4616px"
         d="m 480.1665,273.33417 h 24.49181 l 3.9129,-32.02776 h 10.86915 c 15.36173,0 26.95549,-3.9129 33.6219,-11.159 6.52149,-7.10118 7.53595,-15.7965 7.53595,-22.75275 0,-6.37657 -0.86954,-15.07189 -8.11564,-22.17307 -7.2461,-7.10117 -17.10079,-8.55039 -28.11486,-8.55039 H 492.0501 Z m 40.72308,-76.37389 c 3.47813,0 8.69532,-0.14493 11.8836,3.18828 1.44922,1.44922 2.75352,4.05781 2.75352,8.26055 0,2.17383 -0.28984,5.79688 -3.04336,8.5504 -3.76797,3.76797 -10.14454,4.05782 -13.62267,4.05782 h -7.68087 l 2.89844,-24.05705 z" />
      <path
         id="path836"
         style="font-style:oblique;font-variant:normal;font-weight:bold;font-stretch:normal;font-family:'Futura PT';-inkscape-font-specification:'Futura PT Bold Oblique';fill:#1c1f86;fill-opacity:1;stroke:none;stroke-width:1.4616px"
         d="m 599.38522,206.67005 c -23.18752,0 -39.56371,14.34728 -39.56371,34.49143 0,20.43401 15.65158,34.05667 38.8391,34.05667 22.60783,0 38.25941,-14.4922 38.25941,-35.36096 0,-20.14416 -14.78205,-33.18714 -37.5348,-33.18714 z m -2.02891,49.85317 c -7.97071,0 -13.1879,-5.36212 -13.1879,-13.62267 0,-9.8547 6.66641,-17.39064 15.50665,-17.39064 7.97071,0 12.89806,5.21719 12.89806,13.47774 0,10.14454 -6.37657,17.53557 -15.21681,17.53557 z" />
      <path
         id="path838"
         style="font-style:oblique;font-variant:normal;font-weight:bold;font-stretch:normal;font-family:'Futura PT';-inkscape-font-specification:'Futura PT Bold Oblique';fill:#1c1f86;fill-opacity:1;stroke:none;stroke-width:1.4616px"
         d="m 683.07995,206.67005 c -20.72385,0 -35.79574,15.36173 -35.79574,36.37542 0,18.83986 12.75314,32.17268 30.86839,32.17268 5.50704,0 8.84024,-0.72461 17.1008,-3.47812 l 2.46367,-20.28908 c -5.21719,3.76797 -8.40548,4.92734 -12.75314,4.92734 -8.26055,0 -13.33282,-5.36211 -13.33282,-13.91251 0,-9.85469 6.37657,-16.95587 15.36173,-16.95587 5.07227,0 8.5504,1.59414 13.1879,5.79688 l 2.46368,-20.14416 c -6.23165,-3.04336 -12.46329,-4.49258 -19.56447,-4.49258 z" />
      <path
         id="path840"
         style="font-style:oblique;font-variant:normal;font-weight:bold;font-stretch:normal;font-family:'Futura PT';-inkscape-font-specification:'Futura PT Bold Oblique';fill:#1c1f86;fill-opacity:1;stroke:none;stroke-width:1.4616px"
         d="m 721.31444,167.68603 -13.04298,105.64814 h 23.91213 l 3.76797,-30.43362 c 5.9418,8.11563 9.8547,13.04298 15.50666,19.56447 l 9.56485,10.86915 h 29.12932 l -30.2887,-35.21605 28.25979,-29.56409 h -30.14377 l -20.72385,23.18752 7.97071,-64.05552 z" />
      <path
         id="path842"
         style="font-style:oblique;font-variant:normal;font-weight:bold;font-stretch:normal;font-family:'Futura PT';-inkscape-font-specification:'Futura PT Bold Oblique';fill:#1c1f86;fill-opacity:1;stroke:none;stroke-width:1.4616px"
         d="m 864.35019,245.79899 c 0.14492,-1.73907 0.28985,-3.62305 0.28985,-5.50704 0,-8.40547 -2.02891,-17.97033 -8.69532,-24.63674 -4.63751,-4.6375 -12.31837,-8.98516 -24.49182,-8.98516 -13.1879,0 -22.02814,4.78242 -27.6801,10.28946 -5.50704,5.36211 -10.57931,14.34728 -10.57931,26.81057 0,11.59376 4.63751,18.83986 8.84024,22.89768 3.62305,3.3332 11.159,8.55039 24.78167,8.55039 7.68086,0 19.85431,-1.73906 28.11486,-10.28946 2.89844,-2.89844 5.50704,-6.95625 7.10118,-11.73868 h -26.08596 c -0.43477,1.44922 -1.3043,3.04336 -3.18828,4.34766 -1.88399,1.3043 -4.05782,1.73906 -6.08673,1.73906 -3.91289,0 -6.23164,-1.30429 -7.39102,-2.46367 -3.3332,-3.04336 -3.3332,-8.69532 -3.3332,-11.01407 z m -46.8098,-13.47775 c 0.43476,-2.31875 1.59414,-5.21719 3.47813,-7.10118 1.88398,-1.88398 4.92734,-3.18828 8.26055,-3.18828 3.18828,0 5.79688,1.01445 7.53594,2.6086 1.88399,1.73906 3.18829,4.6375 3.33321,7.68086 z" />
      <path
         id="path844"
         style="font-style:oblique;font-variant:normal;font-weight:bold;font-stretch:normal;font-family:'Futura PT';-inkscape-font-specification:'Futura PT Bold Oblique';fill:#1c1f86;fill-opacity:1;stroke:none;stroke-width:1.4616px"
         d="m 919.35488,226.95913 2.17383,-18.4051 h -12.75314 l 2.6086,-21.30353 h -23.91213 l -2.46368,21.30353 H 874.7189 l -2.17383,18.4051 h 10.14454 l -5.65196,46.37504 h 23.76721 l 5.79688,-46.37504 z" />
      <path
         id="path846"
         style="font-style:oblique;font-variant:normal;font-weight:bold;font-stretch:normal;font-family:'Futura PT';-inkscape-font-specification:'Futura PT Bold Oblique';fill:#1c1f86;fill-opacity:1;stroke:none;stroke-width:1.4616px"
         d="m 1011.5841,174.78721 c -29.56405,0 -52.75157,23.0426 -52.75157,52.46176 0,28.11487 19.99923,47.96918 48.54887,47.96918 7.391,0 12.1734,-0.86953 22.7527,-4.6375 l 3.0434,-24.63674 c -7.5359,4.20274 -14.6371,6.08672 -22.1731,6.08672 -16.0863,0 -27.10037,-10.43438 -27.10037,-25.94103 0,-16.37619 12.60821,-28.11487 30.43367,-28.11487 8.8402,0 16.5211,2.89844 23.6222,8.84024 l 2.8985,-23.91213 c -10.2895,-5.79688 -18.8399,-8.11563 -29.2743,-8.11563 z" />
      <path
         id="path848"
         style="font-style:oblique;font-variant:normal;font-weight:bold;font-stretch:normal;font-family:'Futura PT';-inkscape-font-specification:'Futura PT Bold Oblique';fill:#1c1f86;fill-opacity:1;stroke:none;stroke-width:1.4616px"
         d="m 1098.1977,208.55403 -0.145,7.39103 c -6.9562,-7.10118 -11.8836,-9.27501 -21.0137,-9.27501 -19.5644,0 -34.0566,16.08634 -34.0566,37.96956 0,18.69494 10.5793,30.57854 26.9555,30.57854 8.9851,0 14.6371,-2.31875 22.0281,-8.98516 l -1.7391,7.10118 h 23.9122 l 7.9707,-64.78014 z m -17.8254,47.96919 c -7.9708,0 -13.043,-5.36212 -13.043,-13.62267 0,-9.8547 6.6664,-17.39064 15.3617,-17.39064 7.8258,0 12.7531,5.21719 12.7531,13.47774 0,10.14454 -6.3765,17.53557 -15.0718,17.53557 z" />
      <path
         id="path850"
         style="font-style:oblique;font-variant:normal;font-weight:bold;font-stretch:normal;font-family:'Futura PT';-inkscape-font-specification:'Futura PT Bold Oblique';fill:#1c1f86;fill-opacity:1;stroke:none;stroke-width:1.4616px"
         d="m 1139.4031,208.55403 -7.9707,64.78014 h 23.9121 l 3.768,-30.86839 c 1.3043,-10.86915 5.0722,-15.94142 12.0285,-15.94142 4.9273,0 7.8258,2.89844 7.8258,7.53595 0,1.44922 -0.1449,3.18828 -0.4348,5.50703 l -4.2027,33.76683 h 23.9121 l 3.768,-30.86839 c 1.4492,-11.73868 4.6375,-15.94142 12.3183,-15.94142 4.9274,0 7.9708,3.18829 7.9708,8.40548 0,1.15937 -0.2899,4.34766 -0.5797,6.81133 l -3.9129,31.593 h 23.7672 l 4.3476,-34.05667 c 1.0145,-8.11563 1.1594,-10.86915 1.1594,-13.76759 0,-11.44884 -7.9707,-18.83986 -21.0137,-18.83986 -9.5648,0 -16.666,3.04336 -24.057,11.15899 -4.2028,-8.26055 -9.275,-11.15899 -18.8399,-11.15899 -8.6953,0 -14.6371,2.75352 -21.7383,10.5793 l 1.884,-8.69532 z" />
      <path
         id="path852"
         style="font-style:oblique;font-variant:normal;font-weight:bold;font-stretch:normal;font-family:'Futura PT';-inkscape-font-specification:'Futura PT Bold Oblique';fill:#1c1f86;fill-opacity:1;stroke:none;stroke-width:1.4616px"
         d="m 1330.5348,245.79899 c 0.1449,-1.73907 0.2898,-3.62305 0.2898,-5.50704 0,-8.40547 -2.0289,-17.97033 -8.6953,-24.63674 -4.6375,-4.6375 -12.3184,-8.98516 -24.4918,-8.98516 -13.1879,0 -22.0281,4.78242 -27.6801,10.28946 -5.507,5.36211 -10.5793,14.34728 -10.5793,26.81057 0,11.59376 4.6375,18.83986 8.8402,22.89768 3.6231,3.3332 11.159,8.55039 24.7817,8.55039 7.6809,0 19.8543,-1.73906 28.1149,-10.28946 2.8984,-2.89844 5.507,-6.95625 7.1011,-11.73868 h -26.0859 c -0.4348,1.44922 -1.3043,3.04336 -3.1883,4.34766 -1.884,1.3043 -4.0578,1.73906 -6.0867,1.73906 -3.9129,0 -6.2317,-1.30429 -7.391,-2.46367 -3.3333,-3.04336 -3.3333,-8.69532 -3.3333,-11.01407 z m -46.8098,-13.47775 c 0.4348,-2.31875 1.5941,-5.21719 3.4781,-7.10118 1.884,-1.88398 4.9274,-3.18828 8.2606,-3.18828 3.1883,0 5.7968,1.01445 7.5359,2.6086 1.884,1.73906 3.1883,4.6375 3.3332,7.68086 z" />
      <path
         id="path854"
         style="font-style:oblique;font-variant:normal;font-weight:bold;font-stretch:normal;font-family:'Futura PT';-inkscape-font-specification:'Futura PT Bold Oblique';fill:#1c1f86;fill-opacity:1;stroke:none;stroke-width:1.4616px"
         d="m 1348.2946,208.55403 -7.9708,64.78014 h 23.9122 l 3.3332,-27.53518 c 1.739,-13.1879 5.6519,-17.82541 15.5066,-17.82541 4.2028,0 7.1012,0.86953 10.8692,2.89844 l 2.6086,-22.02814 c -2.0289,-0.14492 -3.6231,-0.28985 -4.6375,-0.28985 -9.1301,0 -14.2024,2.17383 -21.5934,8.84025 l 1.884,-8.84025 z" />
      <path
         id="path856"
         style="font-style:oblique;font-variant:normal;font-weight:bold;font-stretch:normal;font-family:'Futura PT';-inkscape-font-specification:'Futura PT Bold Oblique';fill:#1c1f86;fill-opacity:1;stroke:none;stroke-width:1.4616px"
         d="m 1454.5586,208.55403 -0.1449,7.39103 c -6.9563,-7.10118 -11.8836,-9.27501 -21.0137,-9.27501 -19.5645,0 -34.0567,16.08634 -34.0567,37.96956 0,18.69494 10.5793,30.57854 26.9555,30.57854 8.9852,0 14.6372,-2.31875 22.0282,-8.98516 l -1.7391,7.10118 H 1470.5 l 7.9707,-64.78014 z m -17.8254,47.96919 c -7.9707,0 -13.043,-5.36212 -13.043,-13.62267 0,-9.8547 6.6664,-17.39064 15.3618,-17.39064 7.8258,0 12.7531,5.21719 12.7531,13.47774 0,10.14454 -6.3766,17.53557 -15.0719,17.53557 z" />
    </g>
  </g>
</svg>
